# xmcd
#
# Track frame offsets: 
#        150
#        15314
#        34077
#        52576
#        71104
#        86816
#        105856
#        121927
#        138357
#        159371
#        178842
#        189685
#        208685
#        229604
#        254614
#        272086
#
# Disc length: 3852 seconds
#
# Revision: 0
# Processed by: cddbd v1.5.2PL0 Copyright (c) Steve Scherf et al.
# Submitted via: ExactAudioCopy v1.3
#
DISCID=d40f0a10
DTITLE=竹内まりや - LOVE SONGS (40th Anniversary Edition)
DYEAR=1980
DGENRE=J-Pop
TTITLE0=FLY AWAY
TTITLE1=さよならの夜明け
TTITLE2=磁気嵐
TTITLE3=象牙海岸
TTITLE4=五線紙
TTITLE5=LONELY WIND
TTITLE6=恋の終わりに
TTITLE7=待っているわ
TTITLE8=SEPTEMBER
TTITLE9=不思議なピーチパイ
TTITLE10=little lullaby
TTITLE11=SEPTEMBER (Live Version)
TTITLE12=象牙海岸 (Live Version)
TTITLE13=恋の終わりに (Live Version)
TTITLE14=待っているわ (Live Version)
TTITLE15=五線紙 (Live Version)
EXTD=
EXTT0=
EXTT1=
EXTT2=
EXTT3=
EXTT4=
EXTT5=
EXTT6=
EXTT7=
EXTT8=
EXTT9=
EXTT10=
EXTT11=
EXTT12=
EXTT13=
EXTT14=
EXTT15=
PLAYORDER=
